# cube.obj
mtllib cube.mtl
o Cube
v  1.000000 -1.000000 -1.000000
v  1.000000 -1.000000  1.000000
v -1.000000 -1.000000  1.000000
v -1.000000 -1.000000 -1.000000
v  1.000000  1.000000 -1.000000
v  1.000000  1.000000  1.000000
v -1.000000  1.000000  1.000000
v -1.000000  1.000000 -1.000000
vt  1.0000  1.0000
vt  0.0000  1.0000
vt  0.0000  0.0000
vt  1.0000  0.0000
vt  1.0000  0.0000
vt  1.0000  1.0000
vt  0.0000  1.0000
vt  0.0000  0.0000
vt  1.0000  0.0000
vt  1.0000  1.0000
vt  0.0000  1.0000
vt  0.0000  0.0000
vt  0.0000  1.0000
vt  0.0000  0.0000
vt  1.0000  0.0000
vt  1.0000  1.0000
vt  1.0000  0.0000
vt  1.0000  1.0000
vt  0.0000  1.0000
vt  0.0000  0.0000
vn  0.0000  1.0000  0.0000
vn  0.0000 -1.0000  0.0000
vn -1.0000  0.0000  0.0000
vn  1.0000  0.0000  0.0000
vn  0.0000  0.0000 -1.0000
vn  0.0000  0.0000  1.0000
usemtl Material_Orion360_test_image_top.png
f 5/1/1 8/2/1 7/3/1 6/4/1
usemtl Material_Orion360_test_image_bottom.png
f 1/5/2 2/6/2 3/7/2 4/8/2
usemtl Material_Orion360_test_image_left.png
f 3/9/3 7/10/3 8/2/3 4/8/3
usemtl Material_Orion360_test_image_right.png
f 1/5/4 5/1/4 6/11/4 2/12/4
usemtl Material_Orion360_test_image_back.png
f 5/13/5 1/14/5 4/15/5 8/16/5
usemtl Material_Orion360_test_image_front.png
f 2/17/6 6/18/6 7/19/6 3/20/6
